<?xml version="1.0" standalone="no"?>
<!DOCTYPE svg PUBLIC "-//W3C//DTD SVG 1.1//EN" "http://www.w3.org/Graphics/SVG/1.1/DTD/svg11.dtd" >
<svg>
<metadata>
Created by FontForge 20090622 at Fri Nov 17 14:02:17 2017
 By deploy user
Copyright (c) 2016 by Nick Shinn. All rights reserved.
</metadata>
<defs>
<font id="." horiz-adv-x="819" >
  <font-face 
    font-family="."
    font-weight="400"
    font-stretch="normal"
    units-per-em="2048"
    panose-1="2 0 0 0 0 0 0 0 0 0"
    ascent="1597"
    descent="-451"
    x-height="1024"
    cap-height="1421"
    bbox="-98 -406 1839 1563"
    underline-thickness="143"
    underline-position="-92"
    unicode-range="U+0020-U+25FC"
  />
<missing-glyph horiz-adv-x="748" 
d="M68 0v1365h544v-1365h-544zM136 68h408v1229h-408v-1229z" />
    <glyph glyph-name=".notdef" horiz-adv-x="748" 
d="M68 0v1365h544v-1365h-544zM136 68h408v1229h-408v-1229z" />
    <glyph glyph-name=".null" horiz-adv-x="0" 
 />
    <glyph glyph-name="nonmarkingreturn" horiz-adv-x="682" 
 />
    <glyph glyph-name="space" unicode=" " horiz-adv-x="526" 
 />
    <glyph glyph-name="exclam" unicode="!" horiz-adv-x="675" 
d="M432 1421q0 -118 -17 -528.5t-26 -536.5q-20 4 -51 4q-11 0 -51 -4q-9 124 -25 533.5t-16 531.5q47 -6 92 -6q42 0 94 6zM428 0q-41 8 -86 8t-92 -8q4 58 4 96q0 45 -4 99q68 -5 86 -5q10 0 92 5q-4 -58 -4 -105q0 -40 4 -90z" />
    <glyph glyph-name="quotedbl" unicode="&#x22;" horiz-adv-x="806" 
d="M227 946q-29 0 -57 -4q-2 85 -14.5 274t-14.5 236q38 -6 86 -6q49 0 86 6q-2 -47 -14 -236t-14 -274q-28 4 -58 4zM578 946q-30 0 -58 -4q-2 85 -14 274t-14 236q37 -6 86 -6q48 0 86 6q-2 -47 -14.5 -236t-14.5 -274q-28 4 -57 4z" />
    <glyph glyph-name="numbersign" unicode="#" horiz-adv-x="1228" 
d="M1137 999q-4 -23 -4 -57q0 -21 4 -61q-61 4 -193 4q-24 0 -31.5 -6.5t-11.5 -30.5q-14 -71 -28.5 -171.5t-14.5 -117.5q0 -8 14 -8q105 0 207 6q-4 -16 -4 -55q0 -16 4 -66q-61 4 -202 4q-27 0 -33.5 -6t-12.5 -39q-19 -115 -59 -395q-27 6 -67 6q-37 0 -78 -6
q75 401 75 438q0 6 -14 6h-235q-30 0 -38 -6.5t-12 -38.5l-57 -399q-40 6 -67 6q-45 0 -78 -6q22 114 47.5 268.5t25.5 167.5q0 8 -10 8q-73 0 -184 -6q6 34 6 60q0 18 -6 59q63 -4 176 -4q27 0 34.5 7t12.5 32q13 67 28 167.5t15 114.5q0 13 -12 13q-87 0 -195 -6
q4 50 4 61q0 9 -4 55q15 0 83.5 -1t103.5 -1q26 0 35.5 5.5t13.5 31.5q37 224 53 371q0 3 1 9t1 9q69 -6 80 -6q38 0 68 6q-21 -107 -47.5 -256.5t-26.5 -163.5q0 -8 12 -8h240q27 0 34 6t11 33q24 148 55 389q50 -4 82 -4q27 0 63 4q-73 -400 -73 -422q0 -6 8 -6
q93 0 201 6zM774 879q0 6 -2 7t-10 1h-236q-32 0 -40 -7.5t-13 -33.5q-12 -67 -22 -135t-14.5 -105t-4.5 -45q0 -10 12 -10h238q29 0 37 8t14 39q10 54 25.5 162t15.5 119z" />
    <glyph glyph-name="dollar" unicode="$" horiz-adv-x="1105" 
d="M614 1288q-8 0 -8 -8q0 -6 1 -35.5t2 -76.5t1 -95v-10q0 -68 -1 -148.5t-1 -91.5q0 -26 9.5 -34.5t48.5 -20.5q85 -29 142.5 -58t106 -71.5t72 -102.5t23.5 -139q0 -328 -338 -383q-7 -1 -16.5 -2.5t-14 -2t-10 -1.5t-8 -2t-5.5 -3t-4 -4t-1.5 -5.5t-0.5 -7.5
q0 -101 2 -138q-35 7 -61 7q-33 0 -64 -7q3 65 3 138q0 13 -9 17.5t-45 10.5q-165 27 -252.5 127t-87.5 250v12q31 -8 80 -8q38 0 76 6q0 -81 33 -147.5t104 -101.5q45 -23 88 -23q13 0 16 2t3 12q0 2 -2 90t-2 146v14q0 47 1 131.5t1 91.5q0 37 -9.5 48.5t-50.5 25.5
q-158 55 -229.5 136.5t-71.5 226.5q0 138 83 233.5t224 120.5q34 6 42 11.5t8 23.5q0 62 -3 121q35 -7 64 -7q12 0 61 7q-2 -39 -2 -121q0 -20 8 -25.5t46 -9.5q139 -20 220.5 -106t96.5 -226q-37 6 -76 6q-43 0 -78 -6q-11 88 -69.5 150.5t-145.5 62.5zM676 618
q-11 4 -26 10l-24 11q-9 4 -12 4q-8 0 -8 -8q0 -3 1 -43t2 -97.5t1 -101.5v-16q0 -48 -1 -103.5t-2 -93.5t-1 -43q0 -12 12 -12q29 0 41 2q95 13 149 79t54 165q0 96 -42.5 150.5t-143.5 96.5zM489 1288q-79 0 -137 -47q-76 -58 -76 -170q0 -95 37 -146t133 -91q11 -4 21 -9
l15 -6q4 -2 7 -2q9 0 9 8q0 3 -1 34t-2 79t-1 92v43q0 47 1 95t2 78.5t1 33.5q0 8 -9 8z" />
    <glyph glyph-name="percent" unicode="%" horiz-adv-x="1552" 
d="M1481 358q0 -170 -79.5 -274t-217.5 -104q-135 0 -215 102.5t-80 269.5q0 175 78.5 280t216.5 105q139 0 218 -102.5t79 -276.5zM1296 1421l-852 -1421q-30 10 -67 10q-39 0 -84 -10q223 349 852 1421q40 -8 78 -8q42 0 73 8zM684 1059q0 -170 -79.5 -273.5
t-217.5 -103.5q-135 0 -215 103.5t-80 269.5q0 175 78.5 280t216.5 105q139 0 218 -103.5t79 -277.5zM1346 350q0 153 -36 217t-126 64q-83 0 -122.5 -67t-39.5 -206q0 -136 40 -203t124 -67q85 0 122.5 62.5t37.5 199.5zM549 1051q0 149 -37.5 215.5t-124.5 66.5
q-83 0 -122.5 -67.5t-39.5 -204.5q0 -138 39.5 -204t124.5 -66t122.5 62.5t37.5 197.5z" />
    <glyph glyph-name="ampersand" unicode="&#x26;" horiz-adv-x="1486" 
d="M1343 0q-59 -16 -110 -16q-140 0 -240 114l-14 17q-9 11 -13 15.5t-8 4.5t-9.5 -4.5t-18 -16.5t-17.5 -16q-135 -118 -348 -118q-193 0 -309.5 108.5t-116.5 302.5q0 294 293 420q3 1 8.5 3t8.5 3t7 2.5t6 2.5l5 2q3 2 4.5 3.5t3 2.5t2 2.5t0.5 3.5q0 4 -7 13l-19 26
q-13 18 -23 36q-78 126 -78 232q0 131 92.5 215t251.5 84q163 0 250.5 -80t87.5 -213q0 -227 -305 -342q-1 0 -11.5 -3.5t-17.5 -6.5t-13.5 -8t-6.5 -11q0 -4 5 -10.5t15 -18t17 -22.5l139 -190l44 -63l31 -46l19 -28q9 -12 13 -16.5t8 -4.5q10 0 39 55q47 88 70.5 164
t45.5 197q35 -7 84 -7q28 0 80 9q-21 -116 -70.5 -244.5t-115.5 -230.5q-25 -37 -25 -52q0 -17 23 -43q78 -96 164 -96q42 0 75 10q-6 -35 -6 -73t10 -68zM879 1139q0 74 -46 124t-139 50q-90 0 -140 -41t-50 -115q0 -38 12 -77t26.5 -67.5t41.5 -74.5q15 -26 23.5 -35.5
t21.5 -9.5q14 0 45 14q116 50 160.5 102t44.5 130zM879 254q0 5 -8 15.5t-19 20.5l-12 13q-173 224 -232 313q-15 22 -28 43l-19 32l-11 18q-6 9 -9.5 11.5t-8.5 2.5q-11 0 -43 -16q-190 -98 -190 -304q0 -144 80.5 -215t195.5 -71q169 0 261 92q5 5 15 13l14 12q5 4 9.5 10
t4.5 10z" />
    <glyph glyph-name="quotesingle" unicode="'" horiz-adv-x="454" 
d="M227 946q-29 0 -57 -4q-2 85 -14.5 274t-14.5 236q38 -6 86 -6q49 0 86 6q-2 -47 -14 -236t-14 -274q-28 4 -58 4z" />
    <glyph glyph-name="parenleft" unicode="(" horiz-adv-x="722" 
d="M621 -324q-35 5 -60 5q-15 0 -55 -5q-154 203 -236 435.5t-82 466.5q0 235 78.5 459.5t235.5 418.5q32 -4 59 -4q28 0 60 4q-265 -379 -265 -872q0 -237 69 -470t196 -438z" />
    <glyph glyph-name="parenright" unicode=")" horiz-adv-x="722" 
d="M537 580q0 -238 -80 -469.5t-234 -434.5q-50 5 -63 5q-19 0 -54 -5q129 204 197 437t68 471q0 234 -68 457t-203 415q16 -4 60 -4q27 0 63 4q157 -195 235.5 -418t78.5 -458z" />
    <glyph glyph-name="asterisk" unicode="*" horiz-adv-x="872" 
d="M823 1116q-147 -37 -233 -63q-2 -1 -22.5 -4t-35 -8.5t-14.5 -14.5q0 -6 7 -13.5t17.5 -16.5t14.5 -15q98 -135 162 -211q-59 -22 -105 -72l-137 213q-5 7 -12 22t-13.5 23.5t-13.5 8.5q-6 0 -10.5 -7t-10 -19.5t-9.5 -18.5l-150 -224q-42 47 -108 82q68 74 169 209
q4 5 13 13t15.5 15t6.5 13q0 9 -10 13t-26 5.5t-19 2.5q-125 37 -250 65q35 61 43 125q52 -23 234 -84q5 -2 25.5 -12t29.5 -10q16 0 16 18q0 7 -4 23t-4 24q-5 117 -18 250q37 -6 71 -6q30 0 64 6q-6 -95 -10 -250q0 -8 -5.5 -25t-5.5 -24q0 -16 19 -16q9 0 29 9.5t24 10.5
q125 41 225 84q3 -54 41 -121z" />
    <glyph glyph-name="plus" unicode="+" horiz-adv-x="1167" 
d="M1036 473l-329 4q-9 0 -25.5 1t-24.5 1q-14 0 -14 -16l2 -21q2 -21 2 -43l6 -346q-27 6 -63 6q-46 0 -76 -6l6 346q0 20 2 41.5t2 22.5q0 16 -16 16q-6 0 -21 -1t-22 -1l-334 -4q6 27 6 74q0 29 -6 69l336 -8q5 0 21 -1t22 -1q14 0 14 15q0 4 -2 26t-2 39l-6 346
q37 -6 74 -6q41 0 65 6l-6 -344q0 -15 -2 -39t-2 -28q0 -15 16 -15q8 0 23 1t18 1l336 8q-6 -23 -6 -69q0 -31 6 -74z" />
    <glyph glyph-name="comma" unicode="," horiz-adv-x="493" 
d="M346 195q-22 -202 -110 -504q-12 2 -39 2q-30 0 -76 -4q57 295 57 506q57 -5 88 -5q18 0 80 5z" />
    <glyph glyph-name="hyphen" unicode="-" horiz-adv-x="557" 
d="M471 473q-61 4 -192 4q-144 0 -193 -4q8 27 8 74q0 42 -8 69q106 -4 193 -4q141 0 192 4q-8 -27 -8 -69q0 -28 8 -74z" />
    <glyph glyph-name="period" unicode="." horiz-adv-x="493" 
d="M336 0q-41 8 -86 8t-92 -8q4 58 4 96q0 45 -4 99q68 -5 86 -5q9 0 92 5q-4 -58 -4 -105q0 -40 4 -90z" />
    <glyph glyph-name="slash" unicode="/" horiz-adv-x="872" 
d="M784 1450l-624 -1698q-35 6 -70 6q-36 0 -70 -6l305 810l320 888q35 -6 70 -6t69 6z" />
    <glyph glyph-name="zero" unicode="0" horiz-adv-x="1142" 
d="M111 709q0 372 113.5 552.5t346.5 180.5t347 -180.5t114 -552.5q0 -371 -113.5 -550t-347.5 -179t-347 179t-113 550zM868 709q0 347 -75 479q-68 119 -222 119q-153 0 -221 -119q-76 -134 -76 -479q0 -342 76 -476q67 -118 221 -118q155 0 222 118q75 132 75 476z" />
    <glyph glyph-name="one" unicode="1" horiz-adv-x="704" 
d="M344 0q4 209 4 672v282q0 57 1.5 99t3 62t1.5 24q0 18 -10 18q-5 0 -15 -8.5t-32 -25t-51 -29.5q-6 -3 -32 -14l-45 -18q-19 -8 -50.5 -18.5t-59.5 -17.5q7 32 7 76q0 40 -7 72q136 36 215.5 90.5t135.5 173.5q20 -4 47 -4t51 4q-4 -472 -4 -766q0 -312 4 -672
q-44 6 -82 6q-42 0 -82 -6z" />
    <glyph glyph-name="two" unicode="2" horiz-adv-x="1097" 
d="M100 961v20q0 194 90 311q116 150 347 150q197 0 313.5 -115.5t116.5 -306.5q0 -182 -133 -352q-72 -92 -206 -214.5t-239 -203.5q-27 -21 -65.5 -47.5t-53 -39t-14.5 -20.5q0 -10 18 -10q2 0 76 5t142 5h36q165 2 439 13q-6 -37 -6 -80q0 -42 6 -76q-141 8 -406 8
q-264 0 -452 -8q4 66 4 92q0 51 -13 101l71 55l83 63l73 57l79 64l63 55q190 171 262 287t72 248q0 283 -273 283q-139 0 -204.5 -80.5t-65.5 -241.5v-22q-44 6 -80 6q-40 0 -80 -6z" />
    <glyph glyph-name="three" unicode="3" horiz-adv-x="1097" 
d="M272 1042q-65 9 -79 9q-19 0 -80 -9q0 171 117.5 285.5t308.5 114.5q100 0 182 -31t135 -83.5t82 -120.5t29 -144q0 -105 -60 -195.5t-157 -117.5q-36 -9 -40 -16q-1 -2 -1 -5q0 -13 39 -20q111 -20 177 -110t66 -216q0 -82 -30.5 -154.5t-87.5 -128t-146 -88t-199 -32.5
q-203 0 -321 112t-119 311q58 -8 82 -8q28 0 82 8q3 -141 69.5 -214.5t208.5 -73.5q141 0 219 71.5t78 200.5q0 279 -292 279q-34 0 -103.5 -3.5t-75.5 -3.5q6 38 6 68q0 33 -6 70q16 -1 86 -5t103 -4q122 0 190 64.5t68 200.5q0 252 -266 252q-132 0 -194 -66.5t-71 -196.5
z" />
    <glyph glyph-name="four" unicode="4" horiz-adv-x="1097" 
d="M817 0q-43 6 -80 6q-39 0 -80 -6q5 195 5 262q0 41 -8.5 49t-49.5 8q-342 0 -532 -6q4 46 4 101q0 8 -1 29t-1 30q394 705 518 946q70 -4 92 -4q58 0 131 6q-4 -233 -4 -911q0 -38 6.5 -45.5t40.5 -7.5q18 0 84.5 2t93.5 2q-8 -40 -8 -74t8 -74q-74 4 -172 4
q-33 0 -42 -8.5t-9 -44.5q0 -120 4 -264zM664 508q0 87 -1 274q-1 188 -1 295q0 74 2 119q0 6 1 30t1 29q0 17 -11 17q-3 0 -5.5 -2t-5 -7t-4.5 -10l-6 -16l-9 -18q-39 -91 -88 -179l-68 -120l-103 -184l-85 -161l-13 -22q-14 -26 -27 -47t-18.5 -29t-5.5 -10q0 -10 10 -10
q3 0 19 0.5t41.5 1t52.5 0.5q12 0 103.5 -1t166.5 -1q38 0 46 8.5t8 42.5z" />
    <glyph glyph-name="five" unicode="5" horiz-adv-x="1077" 
d="M102 406q51 -7 80 -7q33 0 80 7q0 -142 59 -216.5t199 -74.5q165 0 232 95.5t67 276.5q0 57 -7 103t-26.5 91t-50.5 75t-82.5 48.5t-120.5 18.5q-100 0 -160.5 -26t-111.5 -103q-54 23 -123 23q31 221 31 626v78q94 -6 266 -6q48 0 471 6q-10 -45 -10 -80q0 -49 4 -69
q-64 1 -179.5 2.5t-205.5 2.5t-158 1q-37 0 -44.5 -8t-10.5 -49q-4 -60 -6.5 -127t-5.5 -103l-5 -56l-4 -49q-1 -19 -1 -22q0 -12 10 -12t30 20q89 89 244 89q195 0 306.5 -123t111.5 -344q0 -111 -27.5 -203.5t-82.5 -162.5t-145 -109t-208 -39q-202 0 -307.5 111.5
t-108.5 314.5z" />
    <glyph glyph-name="six" unicode="6" horiz-adv-x="1103" 
d="M983 1069q-44 6 -80 6q-39 0 -80 -6q-5 118 -58.5 177t-172.5 59q-168 0 -244 -129q-53 -93 -76 -322l-2 -23l-12 -94q-6 -35 -6 -49q0 -10 8 -10q3 0 16 22q128 207 345 207q181 0 284 -123t103 -329q0 -222 -119.5 -348.5t-315.5 -126.5q-84 0 -152 21t-126.5 70
t-98 125.5t-61.5 191.5t-22 263q0 91 5.5 170.5t20.5 161.5t38 148t60.5 125.5t86.5 99.5t117 63t151 23q184 0 287 -96.5t104 -276.5zM844 444q0 163 -69.5 246.5t-186.5 83.5q-93 0 -172 -50t-117 -134q-27 -58 -18 -139q33 -334 294 -334q128 0 198.5 82t70.5 245z" />
    <glyph glyph-name="seven" unicode="7" horiz-adv-x="1024" 
d="M506 0q-44 6 -84 6q-44 0 -84 -6q0 573 317 1067q43 65 93 129q14 19 31.5 37t26.5 28t9 15q0 8 -18 8q-4 0 -23.5 -1.5t-64.5 -3t-111 -1.5h-57q-287 0 -463 -12q8 46 8 84q0 35 -4 71q250 -4 600 -4q181 0 283 4q2 -16 2 -67q0 -13 -1 -37.5t-1 -32.5
q-220 -279 -339.5 -604t-119.5 -680z" />
    <glyph glyph-name="eight" unicode="8" horiz-adv-x="1105" 
d="M543 1305q-129 0 -190.5 -66t-61.5 -178q0 -133 61 -190.5t191 -57.5t191 57.5t61 190.5q0 112 -61.5 178t-190.5 66zM543 676q-141 0 -218 -73t-77 -220q0 -266 295 -266t295 266q0 147 -77 220t-218 73zM543 -20q-215 0 -336 105.5t-121 293.5q0 189 121 285
q57 45 133 61q53 12 53 23q0 7 -12.5 12t-40.5 13t-49 18q-86 40 -122 107t-36 169q0 161 113 268t297 107t296.5 -106.5t112.5 -268.5q0 -102 -35.5 -169t-121.5 -107q-22 -10 -49.5 -18t-40.5 -13t-13 -12q0 -11 53 -23q77 -16 134 -61q120 -95 120 -285
q0 -188 -120.5 -293.5t-335.5 -105.5z" />
    <glyph glyph-name="nine" unicode="9" horiz-adv-x="1103" 
d="M125 346q44 -6 80 -6q39 0 80 6q5 -118 56.5 -173.5t170.5 -55.5q145 0 214.5 75t92.5 267q2 23 8 65t7 60q4 65 10 94q8 46 8 49q0 10 -8 10q-4 0 -17 -22l-33 -53q-10 -16 -32 -43.5t-45 -45.5q-82 -63 -225 -63q-186 0 -291 122.5t-105 328.5q0 222 116.5 351.5
t317.5 129.5q106 0 187.5 -35.5t132.5 -96t83.5 -149t45 -184.5t12.5 -213q0 -91 -5.5 -170t-20.5 -160.5t-38 -147t-60.5 -124t-86.5 -97.5t-117 -62t-151 -23q-185 0 -285.5 93t-101.5 273zM260 973q0 -328 256 -328q94 0 172.5 48.5t116.5 131.5q18 37 18 64q0 41 -4 76
q-33 340 -291 340q-268 0 -268 -332z" />
    <glyph glyph-name="colon" unicode=":" horiz-adv-x="493" 
d="M336 0q-41 8 -86 8t-92 -8q4 58 4 96q0 45 -4 99q68 -5 86 -5q9 0 92 5q-4 -58 -4 -105q0 -40 4 -90zM336 760q-41 8 -86 8t-92 -8q4 58 4 96q0 45 -4 99q67 -5 86 -5q9 0 92 5q-4 -58 -4 -105q0 -40 4 -90z" />
    <glyph glyph-name="semicolon" unicode=";" horiz-adv-x="493" 
d="M336 760q-41 8 -86 8t-92 -8q4 58 4 96q0 44 -4 98q54 -4 86 -4q26 0 92 4q-4 -58 -4 -104q0 -40 4 -90zM346 195q-22 -202 -110 -504q-12 2 -39 2q-30 0 -76 -4q57 295 57 506q57 -5 88 -5q18 0 80 5z" />
    <glyph glyph-name="less" unicode="&#x3c;" horiz-adv-x="1167" 
d="M1042 27q-436 232 -917 454q6 48 6 64q0 9 -6 63q161 72 443 212l474 239q-8 -41 -8 -82q0 -35 8 -68q-248 -110 -636 -303q-16 -8 -51.5 -17.5t-57 -19.5t-21.5 -26q0 -13 20.5 -23.5t56.5 -22t53 -20.5q366 -182 636 -301q-8 -31 -8 -65q0 -43 8 -84z" />
    <glyph glyph-name="equal" unicode="=" horiz-adv-x="1167" 
d="M1034 668q-258 4 -450 4q-115 0 -451 -4q4 36 4 69q0 28 -4 74q344 -4 451 -4q188 0 450 4q-4 -46 -4 -76q0 -31 4 -67zM1034 283q-258 4 -450 4q-115 0 -451 -4q4 36 4 69q0 28 -4 74q344 -4 451 -4q188 0 450 4q-4 -46 -4 -76q0 -31 4 -67z" />
    <glyph glyph-name="greater" unicode="&#x3e;" horiz-adv-x="1167" 
d="M1042 477q-163 -73 -446 -213l-471 -237q8 41 8 82q0 34 -8 67q257 114 637 303q16 8 51.5 18t56.5 20t21 26q0 13 -20 23t-56 21.5t-53 20.5q-359 178 -637 301q8 31 8 66q0 43 -8 84l443 -227l474 -228q-6 -48 -6 -63q0 -10 6 -64z" />
    <glyph glyph-name="question" unicode="?" horiz-adv-x="1007" 
d="M920 1040q0 -141 -63 -229t-206 -170q-81 -46 -111 -94t-30 -144v-34q-36 8 -76 8q-24 0 -78 -8v32q0 91 22 156.5t57 101t77.5 61t85 48.5t77.5 52t57 81t22 127q0 140 -58.5 209.5t-195.5 69.5q-144 0 -194 -63t-50 -210q-38 6 -80 6t-82 -6v25q0 187 108 285t302 98
q196 0 306 -104.5t110 -297.5zM524 0q-41 8 -86 8t-92 -8q4 58 4 96q0 45 -4 99q67 -5 86 -5q10 0 92 5q-4 -58 -4 -105q0 -40 4 -90z" />
    <glyph glyph-name="at" unicode="@" horiz-adv-x="1599" 
d="M1462 748q0 -214 -100.5 -346t-251.5 -132q-112 0 -162 74q-5 6 -8.5 21.5t-8 26.5t-11.5 11q-6 0 -12.5 -9.5t-13.5 -23t-11 -18.5q-68 -80 -166 -80q-103 0 -166.5 86.5t-63.5 225.5q0 125 44 233.5t121 173t167 64.5q86 0 137 -70q17 -24 21 -24q10 0 10 65
q40 -4 72 -4q47 0 65 4q-61 -389 -71 -494q-6 -42 -6 -49q0 -45 22.5 -70.5t63.5 -25.5q89 0 146.5 96t57.5 254q0 253 -140.5 408t-358.5 155q-160 0 -287 -84t-196.5 -227.5t-69.5 -318.5q0 -283 151 -453t414 -170q105 0 189.5 26t189.5 91q13 -38 57 -82
q-118 -86 -216.5 -119t-235.5 -33q-211 0 -371 98t-243 263.5t-83 372.5q0 157 51 295.5t141.5 239.5t222.5 159.5t286 58.5q134 0 249 -47.5t198 -133t130 -211.5t47 -277zM936 715q12 93 12 106q0 46 -16 70q-30 49 -94 49q-83 0 -136 -105t-53 -243q0 -84 29.5 -134
t79.5 -50q42 0 77.5 34t59.5 95q25 68 41 178z" />
    <glyph glyph-name="A" unicode="A" horiz-adv-x="1214" 
d="M1182 0q-62 6 -97 6q-29 0 -88 -6q-16 55 -47 151l-47 150q-9 28 -17.5 33.5t-37.5 7.5q-164 4 -291 4q-121 0 -180 -2q-48 -1 -58.5 -8t-19.5 -37l-45 -150q-31 -99 -45 -149q-53 6 -84 6q-39 0 -92 -6l225 685q193 589 234 736q49 -6 108 -6q54 0 113 6q22 -76 87 -275
l122 -371l148 -443zM852 494q0 3 -4.5 11.5t-14.5 32t-20 54.5q-29 99 -95 298l-83 255q-4 12 -25 106q-4 21 -12 21t-12 -21q-9 -45 -25 -104l-81 -256q-68 -209 -101 -324q-5 -19 -12.5 -36.5t-12 -26.5t-4.5 -12q0 -11 19 -11q7 0 21 1t18 1q61 2 198 2q136 0 193 -2
q5 0 17 -1t18 -1q18 0 18 13z" />
    <glyph glyph-name="B" unicode="B" horiz-adv-x="1202" 
d="M1087 383q0 -211 -153 -313q-106 -70 -260 -70q-50 0 -161 3t-161 3q-91 0 -180 -6q6 369 6 733q0 424 -6 688q82 -6 166 -6q58 0 147.5 3t128.5 3q102 0 164 -13.5t113 -45.5q68 -41 105.5 -118.5t37.5 -178.5q0 -148 -84 -229q-73 -67 -166 -80q-39 -4 -39 -15
q0 -8 37 -12q71 -10 121 -30t92 -62q48 -51 70 -109.5t22 -144.5zM872 1049q0 51 -11 89t-39 72.5t-83 53t-135 18.5q-25 0 -223 -6q-32 -1 -37.5 -8.5t-7.5 -46.5q-4 -132 -4 -320v-53q0 -35 6 -42t37 -7q154 0 207 2q151 3 220.5 61.5t69.5 186.5zM924 391
q0 151 -80.5 213.5t-241.5 65.5q-26 1 -65.5 1t-91 -0.5t-76.5 -0.5q-26 0 -31.5 -7t-5.5 -42v-43q0 -248 2 -357q1 -33 2 -44.5t11 -22.5t25.5 -12.5t51.5 -2.5q78 -2 203 -2q297 0 297 254z" />
    <glyph glyph-name="C" unicode="C" horiz-adv-x="1220" 
d="M938 485q40 -6 86 -6q42 0 76 6q0 -93 -13 -159q-38 -174 -153.5 -260t-298.5 -86q-114 0 -204 37.5t-148.5 102t-97 157t-54.5 196.5t-16 227q0 354 136.5 548t383.5 194q373 0 446 -320q19 -81 19 -159q-35 6 -78 6q-46 0 -84 -6q0 29 -2 43q-5 61 -22.5 111.5
t-51 94.5t-91.5 68.5t-136 24.5q-168 0 -262 -147.5t-94 -452.5q0 -94 9 -174t34 -158.5t63.5 -133.5t102.5 -88.5t147 -33.5q135 0 206.5 71t90.5 209q6 41 6 88z" />
    <glyph glyph-name="D" unicode="D" horiz-adv-x="1284" 
d="M1167 698q0 -335 -142.5 -516.5t-416.5 -181.5h-35q-44 0 -116.5 3t-110.5 3q-124 0 -174 -6q6 270 6 684q0 396 -6 737q99 -6 170 -6q45 0 116.5 3t96.5 3h27q585 0 585 -723zM1004 700q0 79 -7.5 145.5t-25.5 135t-52.5 121t-84.5 94.5t-125.5 64t-171.5 22l-148 -2
q-34 0 -42 -8t-9 -49q-6 -243 -6 -527q0 -178 4 -432q1 -34 1 -49t5 -32t9 -22t19.5 -10.5t29 -6.5t44.5 -3q23 -2 82 -2q139 0 232.5 34.5t147.5 108t76 173.5t22 245z" />
    <glyph glyph-name="E" unicode="E" horiz-adv-x="1042" 
d="M954 0q-150 6 -370 6q-236 0 -412 -6q6 267 6 709q0 365 -6 712q238 -8 399 -8q177 0 365 8q-4 -50 -4 -78q0 -45 4 -81q-211 6 -528 6q-51 0 -61.5 -7t-10.5 -44q-2 -96 -2 -336v-45q0 -30 8.5 -37.5t46.5 -7.5h43q171 0 479 8q-6 -38 -6 -84t6 -76q-231 6 -479 6h-43
q-37 0 -46 -9t-9 -38v-41q0 -235 2 -354q0 -35 8.5 -42t50.5 -7q376 0 559 8q-6 -40 -6 -90q0 -42 6 -72z" />
    <glyph glyph-name="F" unicode="F" horiz-adv-x="1003" 
d="M340 0q-44 6 -84 6t-84 -6q6 267 6 668q0 406 -6 753q238 -8 395 -8q181 0 369 8q-4 -50 -4 -78q0 -45 4 -81q-231 6 -492 6h-55q-36 0 -44.5 -8t-8.5 -43q-2 -90 -2 -316v-65q0 -32 8 -38.5t47 -6.5q162 0 522 8q-6 -38 -6 -84t6 -76q-178 6 -522 6q-38 0 -46.5 -7.5
t-8.5 -39.5q0 -229 6 -598z" />
    <glyph glyph-name="G" unicode="G" horiz-adv-x="1275" 
d="M655 1442q374 0 447 -320q18 -76 18 -159q-35 6 -78 6q-46 0 -84 -6q0 155 -75 248.5t-228 93.5q-376 0 -376 -625q0 -272 95.5 -417.5t280.5 -145.5q105 0 163.5 18t107.5 55q41 32 50 69.5t9 141.5q0 73 -2 93q-3 41 -12.5 51t-44.5 10q-133 0 -277 -8q6 43 6 84
q0 29 -6 78q133 -7 258 -7t228 7q-5 -153 -5 -205q0 -94 5 -299q-156 -225 -480 -225q-256 0 -397 176.5t-141 525.5q0 126 16 234t55.5 207t99.5 168t154 110t213 41z" />
    <glyph glyph-name="H" unicode="H" horiz-adv-x="1312" 
d="M655 662q-155 0 -272 -3q-36 -2 -42.5 -7.5t-6.5 -35.5v-30q0 -294 6 -586q-44 6 -84 6t-84 -6q6 273 6 713q0 379 -6 708q44 -6 84 -6t84 6q-6 -267 -6 -534v-33q0 -33 7.5 -42t37.5 -9q180 -4 276 -4q97 0 277 4q30 0 37.5 9t7.5 42v33q0 267 -6 534q43 -6 84 -6t84 6
q-6 -328 -6 -708q0 -440 6 -713q-43 6 -84 6t-84 -6q6 292 6 586v30q0 30 -6.5 35.5t-42.5 7.5q-117 3 -273 3z" />
    <glyph glyph-name="I" unicode="I" horiz-adv-x="512" 
d="M256 6q-40 0 -84 -6q6 273 6 713q0 379 -6 708q44 -6 84 -6t84 6q-6 -328 -6 -708q0 -440 6 -713q-44 6 -84 6z" />
    <glyph glyph-name="J" unicode="J" horiz-adv-x="1054" 
d="M258 496q-2 -20 -2 -68q0 -311 219 -311q75 0 122 17.5t74.5 61t38.5 104.5t13 161q2 68 2 391q0 29 -8 569q43 -6 84 -6t84 6q-4 -262 -4 -514q0 -79 3 -234.5t3 -234.5q0 -128 -21 -202.5t-67 -135.5q-44 -60 -129.5 -90t-194.5 -30q-104 0 -181 36t-121 100t-64.5 142
t-20.5 172q0 43 2 66q51 -7 84 -7t84 7z" />
    <glyph glyph-name="K" unicode="K" horiz-adv-x="1134" 
d="M334 463q0 -88 6 -463q-44 6 -84 6t-84 -6q6 273 6 713q0 379 -6 708q44 -6 84 -6t84 6q-6 -480 -6 -501q0 -13 -2 -62t-2 -70q0 -22 12 -22q5 0 8.5 3.5t12.5 17t18 24.5l50 61l71 86l385 463q41 -6 94 -6q65 0 102 6l-485 -567l-68 -78q-5 -6 -13.5 -14.5t-11.5 -12.5
t-6 -9.5t-3 -10.5q0 -17 24 -41q3 -4 44 -45t61 -65l479 -578q-40 6 -117 6q-62 0 -92 -6l-162 202l-250 302q-41 47 -102 129q-6 8 -12 17t-9 14.5t-6.5 10.5t-6 7t-5.5 2q-12 0 -12 -18q0 -36 2 -109.5t2 -93.5z" />
    <glyph glyph-name="L" unicode="L" horiz-adv-x="925" 
d="M332 713q0 -73 6 -508q0 -37 6 -44t35 -7h35q311 0 450 8q-6 -38 -6 -80t6 -82q-135 6 -344 6q-182 0 -348 -6q6 273 6 713q0 379 -6 708q44 -6 84 -6t84 6q-8 -438 -8 -708z" />
    <glyph glyph-name="M" unicode="M" horiz-adv-x="1646" 
d="M422 920q-21 61 -70 256q-21 83 -30 93q-4 3 -7 3q-10 0 -10 -23q0 -78 9.5 -234.5t9.5 -234.5l2 -780q-40 6 -78 6q-36 0 -80 -6q4 356 4 637q0 304 -4 784q55 -6 125 -6q50 0 119 6q107 -343 364 -1081q17 -51 27 -102q1 -4 3 -17.5t4 -19.5t7 -6q7 0 14 43
q5 27 31 106q287 819 363 1077q50 -6 129 -6q45 0 114 6q-2 -193 -2 -622q0 -369 4 -799q-38 6 -79 6t-84 -6l2 780q0 78 9 234.5t9 234.5q0 23 -10 23q-13 0 -33 -82q-3 -9 -4 -14q-49 -195 -70 -256q-24 -74 -128 -371l-142 -406q-11 -31 -26 -83l-17 -60q-43 6 -86 6
t-80 -6q-14 58 -43 143l-150 441z" />
    <glyph glyph-name="N" unicode="N" horiz-adv-x="1355" 
d="M1186 1421q-4 -203 -4 -665v-756q-44 6 -117 6q-71 0 -115 -6l-146 304l-206 420l-180 366l-41 84q-9 18 -18 45t-15.5 40t-13.5 13q-13 0 -13 -23q0 -17 6.5 -86t6.5 -114v-379q0 -322 4 -670q-30 6 -72 6q-55 0 -92 -6q4 184 4 670q0 530 -4 751q61 -6 129 -6
q69 0 133 6l498 -1015q31 -58 59 -140q2 -6 7 -18l7 -22q3 -9 7.5 -19t8.5 -15.5t7 -5.5q10 0 10 19t-5 90t-5 121v340q0 263 -4 665q38 -6 76 -6q48 0 88 6z" />
    <glyph glyph-name="O" unicode="O" horiz-adv-x="1318" 
d="M659 117q178 0 277.5 147.5t99.5 444.5q0 596 -377 596q-376 0 -376 -596q0 -297 99 -444.5t277 -147.5zM659 -20q-259 0 -399.5 181.5t-140.5 547.5q0 352 136.5 542.5t403.5 190.5t404 -190.5t137 -542.5q0 -366 -141 -547.5t-400 -181.5z" />
    <glyph glyph-name="P" unicode="P" horiz-adv-x="1112" 
d="M1022 997q0 -220 -135 -342.5t-355 -122.5q-30 0 -82 1.5t-83 1.5q-22 0 -27.5 -5t-5.5 -28v-45q0 -118 6 -457q-38 6 -82 6q-46 0 -86 -6q6 276 6 647q0 433 -6 774q70 -4 129 -4q45 0 127 2t127 2q226 0 346.5 -104t120.5 -320zM854 995q0 138 -81 213.5t-226 75.5
q-25 0 -166 -6q-33 -2 -40 -7.5t-7 -29.5q0 -12 -1 -34.5t-1 -55.5l2 -420q0 -33 6 -41t31 -10q47 -2 108 -2q106 0 181 23.5t116.5 67.5t59.5 99t18 127z" />
    <glyph glyph-name="Q" unicode="Q" horiz-adv-x="1318" 
d="M770 -10q-18 -2 -18 -47q0 -31 6 -50.5t24.5 -38t57 -27.5t98.5 -9q41 0 109 12q-9 -65 -9 -88q0 -42 9 -80q-67 -16 -140 -16q-141 0 -218 66.5t-89 185.5l-2 45q-1 17 -2.5 23t-7 11t-17.5 7q-26 4 -41 8q-199 42 -305 222t-106 497q0 352 136.5 541.5t403.5 189.5
q259 0 400 -184.5t141 -550.5q0 -312 -108.5 -495.5t-321.5 -221.5zM659 1305q-376 0 -376 -598q0 -297 98.5 -443.5t277.5 -146.5q377 0 377 594q0 297 -99.5 445.5t-277.5 148.5z" />
    <glyph glyph-name="R" unicode="R" horiz-adv-x="1179" 
d="M1071 0q-37 6 -84 6q-51 0 -92 -6q-76 363 -129 479q-16 33 -32 53.5t-45.5 39.5t-76 27.5t-114.5 8.5h-109q-42 0 -49.5 -7.5t-7.5 -47.5v-12q0 -151 8 -541q-34 6 -84 6q-44 0 -84 -6q6 540 6 668q0 60 -6 753q41 -4 199 -4q44 0 121.5 2t121.5 2q114 0 199 -32.5
t132.5 -89.5t70 -123.5t22.5 -143.5q0 -95 -40 -178t-109 -127q-56 -33 -119 -39l-25 -2q-16 0 -16 -10q0 -7 29 -17q128 -40 182 -182q25 -63 131 -477zM870 1032q0 116 -66 185t-206 69q-141 0 -207 -4q-32 -2 -44.5 -12t-12.5 -41q-2 -117 -2 -389v-45q0 -33 9.5 -41.5
t53.5 -8.5h92q69 0 115 5q135 13 201.5 75t66.5 207z" />
    <glyph glyph-name="S" unicode="S" horiz-adv-x="1140" 
d="M1030 379q0 -186 -124 -292.5t-351 -106.5q-95 0 -175.5 25t-144.5 74.5t-100.5 132t-36.5 189.5q0 40 4 72q35 -6 78 -6q48 0 88 6q-4 -40 -4 -74q0 -143 79.5 -212.5t225.5 -69.5q156 0 227.5 68t71.5 177q0 158 -163 226q-31 13 -173.5 60t-212.5 87q-49 25 -92 68
q-96 96 -96 252q0 67 26.5 133.5t78 124t140 93.5t199.5 36q224 0 349 -137q86 -96 86 -246q0 -41 -6 -78q-30 6 -80 6q-46 0 -86 -6q0 3 1 26.5t1 39.5q0 125 -74.5 191.5t-202.5 66.5q-132 0 -204 -71t-72 -177q0 -70 28 -117t101 -84q45 -23 99.5 -43t130.5 -45.5
t132 -46.5q73 -28 119 -64q65 -50 99 -114t34 -164z" />
    <glyph glyph-name="T" unicode="T" horiz-adv-x="958" 
d="M479 6q-41 0 -84 -6q6 574 6 1151v78q0 22 -8.5 30.5t-32.5 8.5h-34q-41 0 -89.5 -1t-109 -2.5t-96.5 -2.5q4 46 4 79q0 40 -4 80q33 0 194 -3t254 -3t255 3t194 3q-4 -40 -4 -80q0 -33 4 -79q-36 1 -96.5 2.5t-109 2.5t-89.5 1h-35q-24 0 -32.5 -8.5t-8.5 -30.5v-78
q0 -577 6 -1151q-43 6 -84 6z" />
    <glyph glyph-name="U" unicode="U" horiz-adv-x="1257" 
d="M1087 471q0 -254 -108 -372.5t-350 -118.5q-459 0 -459 491v16q0 83 3 247t3 253q0 5 -6 434q44 -6 84 -6t84 6q0 -45 -3 -194t-3 -240q0 -361 2 -504q2 -178 69 -272t226 -94q158 0 224.5 85.5t68.5 280.5q4 304 4 504q0 81 -2 234t-2 200q40 -6 79 -6t86 6
q-2 -139 -2 -434q0 -75 1 -242t1 -258v-16z" />
    <glyph glyph-name="V" unicode="V" horiz-adv-x="1206" 
d="M1178 1421l-245 -757l-216 -664q-43 6 -101 6q-64 0 -114 -6q-63 201 -471 1421q44 -6 106 -6q56 0 80 6q166 -566 358 -1149q7 -21 23 -92q6 -35 16 -35q12 0 17 35q1 5 6 39t10 51q202 622 352 1151q30 -6 82 -6q51 0 97 6z" />
    <glyph glyph-name="W" unicode="W" horiz-adv-x="1832" 
d="M1366 346q203 899 236 1075q69 -6 81 -6q45 0 89 6q-32 -144 -161 -683t-171 -738q-35 6 -113 6q-61 0 -119 -6q-109 486 -217 891q-43 158 -55 270q-1 7 -1.5 18t-1.5 18.5t-2 17t-2 15.5l-3 12q-2 5 -5 8t-6 3t-5.5 -2.5t-3.5 -8.5l-3 -12q-2 -6 -3 -16t-1.5 -17
t-1.5 -18.5t-2 -17.5q-13 -118 -55 -268q-65 -238 -222 -893q-46 6 -104 6q-68 0 -117 -6l-144 607l-192 814q40 -6 82 -6q45 0 95 6q79 -454 229 -1075q8 -32 18 -96t15 -88q3 -17 12 -17t12 17q26 141 37 184q169 636 262 1075q37 -6 92 -6q61 0 101 6q77 -369 256 -1075
q11 -43 37 -184q3 -17 12 -17t12 17q5 24 15 88t18 96z" />
    <glyph glyph-name="X" unicode="X" horiz-adv-x="1110" 
d="M1071 0q-49 6 -108 6q-45 0 -89 -6q-67 129 -158 288.5t-106 188.5q-34 61 -39 74l-6 14l-5 12l-3 8q-1 4 -3 5.5t-5 1.5t-5 -4t-4 -9t-5 -13.5t-7 -14.5l-36 -68l-271 -483q-25 6 -76 6q-53 0 -106 -6q71 131 216 371l183 305q17 27 17 45q0 15 -9 33
q-43 79 -180.5 307.5t-208.5 359.5q49 -6 107 -6q44 0 84 6l138 -255q83 -147 112 -203l16 -27q15 -26 21 -43q20 -57 24 -57t6.5 6.5t7.5 23t9 27.5q11 30 41 80q158 276 245 448q40 -6 84 -6q54 0 101 6q-78 -142 -209 -360l-168 -283q-21 -38 -21 -49q0 -24 17 -55
l182 -304z" />
    <glyph glyph-name="Y" unicode="Y" horiz-adv-x="1136" 
d="M1108 1421l-212 -377q-154 -273 -202 -368q-33 -64 -41 -99t-8 -112q0 -59 2.5 -203t3.5 -262q-43 6 -84 6t-84 -6q1 96 3.5 248t2.5 211q0 86 -7.5 122.5t-37.5 94.5l-212 385l-201 360q47 -6 96 -6q47 0 88 6q41 -80 157 -291l120 -219q46 -86 63 -153q9 -35 18 -35
q12 0 19 35q10 42 72 151l70 129l116 218q53 99 84 165q40 -6 82 -6t92 6z" />
    <glyph glyph-name="Z" unicode="Z" horiz-adv-x="1036" 
d="M946 0q-274 6 -543 6q-109 0 -311 -6q2 23 2 57q0 22 -2 48t-2 32l561 965q24 44 70 104q33 45 33 54q0 10 -43 10h-95q-42 0 -510 -8q5 50 5 81q0 15 -5 78q184 -6 416 -6q198 0 414 6q2 -14 2 -69q0 -12 -1 -33.5t-1 -28.5l-236 -405l-244 -417l-114 -198
q-16 -29 -36 -57l-30 -43q-10 -15 -10 -20q0 -9 13 -9q5 0 42.5 4t75.5 5q11 0 103 2l230 5q138 3 216 5q-4 -50 -4 -82q0 -49 4 -80z" />
    <glyph glyph-name="bracketleft" unicode="[" horiz-adv-x="722" 
d="M571 -324q-148 5 -172 5q-17 0 -174 -5q4 430 4 883q0 421 -4 897q51 -2 176 -2q123 0 166 2q0 -8 -1 -27t-1 -28q0 -8 1 -24t1 -23l-75 2q-37 1 -58 1.5t-35 0.5q-15 0 -20.5 -6t-5.5 -25q-2 -225 -2 -774q0 -546 2 -741q0 -37 30 -37q18 0 76.5 1t91.5 1q-4 -24 -4 -47
q0 -22 4 -54z" />
    <glyph glyph-name="backslash" unicode="\" horiz-adv-x="872" 
d="M88 1450q34 -6 70 -6q34 0 69 6l320 -888l305 -810q-34 6 -70 6q-34 0 -69 -6z" />
    <glyph glyph-name="bracketright" unicode="]" horiz-adv-x="722" 
d="M481 -324q-51 2 -176 2q-123 0 -166 -2q0 8 1 27.5t1 28.5q0 8 -1 24t-1 23l74 -2q38 -1 59 -1.5t35 -0.5q16 0 21.5 6t5.5 24q2 225 2 783q0 538 -2 733q0 37 -31 37q-18 0 -76.5 -1t-91.5 -1q4 24 4 47q0 21 -4 53q118 -4 172 -4q48 0 174 4q-4 -430 -4 -874
q0 -430 4 -906z" />
    <glyph glyph-name="asciicircum" unicode="^" horiz-adv-x="1167" 
d="M1087 666q-18 4 -65 4q-32 0 -72 -4q-169 305 -336 565q-4 6 -9.5 20.5t-11 23.5t-13.5 9q-7 0 -13 -8.5t-12 -24.5t-10 -22l-332 -563q-23 4 -72 4q-45 0 -61 -4l230 379q129 220 200 352q23 -4 74 -4q31 0 67 4q179 -320 436 -731z" />
    <glyph glyph-name="underscore" unicode="_" horiz-adv-x="1126" 
d="M1126 -295h-1126v119h1126v-119z" />
    <glyph glyph-name="grave" unicode="`" 
d="M229 1452q122 -4 136 -4q33 0 73 4q20 -36 63 -104l75 -119q31 -50 34 -58q-47 7 -86 7q-29 0 -57 -4q-26 37 -67 85l-98 111q-57 63 -73 82z" />
    <glyph glyph-name="a" unicode="a" horiz-adv-x="1038" 
d="M901 4h-27q-61 0 -131 -8q-6 48 -6 98v35q0 21 -10 21q-11 0 -25 -27q-65 -143 -268 -143q-156 0 -239.5 77t-83.5 215q0 64 16 114.5t41 84t65.5 59t78.5 39.5t90.5 23.5t93 13.5t93.5 8h3l53 4q41 3 58.5 20.5t17.5 55.5v4q0 115 -49.5 163t-159.5 48q-142 0 -186 -59
q-25 -35 -25 -84q0 -15 2 -32t2 -19q-38 6 -78 6q-33 0 -73 -6q-4 24 -4 57q0 133 102.5 202.5t259.5 69.5q259 0 332 -163q20 -43 25 -83.5t5 -103.5q0 -67 -1 -203t-1 -178q0 -142 29 -309zM563 496q-77 -8 -133 -19q-81 -17 -124.5 -57.5t-43.5 -128.5q0 -89 51 -134.5
t136 -45.5q205 0 256 188q11 44 14 113q2 39 2 86v8q0 14 -10 14q-3 0 -7 -1t-12.5 -4t-19.5 -5q-26 -6 -109 -14z" />
    <glyph glyph-name="b" unicode="b" horiz-adv-x="1112" 
d="M346 139q-8 19 -16 19q-11 0 -11 -13q0 -15 1.5 -74t1.5 -71q-40 6 -80 6t-80 -6q6 188 10 471q2 176 2 426q0 265 -4 555q40 -6 82 -6t82 6l-4 -436q0 -32 -4 -84.5t-4 -63.5q0 -12 8 -12q3 0 5.5 1.5t4.5 5.5t3.5 6.5t4.5 9.5t4 10q66 155 275 155q83 0 148 -29.5
t107 -79t69 -119.5t38.5 -146.5t11.5 -165.5q0 -245 -95.5 -384.5t-287.5 -139.5q-107 0 -170.5 36.5t-101.5 122.5zM842 506q0 216 -61 309.5t-199 93.5q-84 0 -150 -58.5t-90 -148.5q-12 -44 -12 -172q0 -147 14 -202q52 -211 242 -211q134 0 195 96t61 293z" />
    <glyph glyph-name="c" unicode="c" horiz-adv-x="987" 
d="M874 684q-34 6 -77 6q-38 0 -84 -8l-4 33q-11 95 -57 144.5t-138 49.5q-124 0 -182 -100t-58 -317q0 -192 57 -284.5t177 -92.5q98 0 154 62t57 179q38 -6 78 -6q34 0 75 6q-12 -191 -106.5 -283.5t-253.5 -92.5q-196 0 -296.5 129t-100.5 385q0 270 104.5 410t304.5 140
q158 0 252.5 -89t97.5 -271z" />
    <glyph glyph-name="d" unicode="d" horiz-adv-x="1112" 
d="M940 287q0 -153 16 -287q-38 6 -82 6q-40 0 -83 -6q0 1 -1.5 18.5t-1.5 26.5q0 22 1.5 54.5t1.5 35.5q0 23 -13 23q-9 0 -18 -21q-41 -84 -105 -120.5t-170 -36.5q-184 0 -279 133t-95 391q0 89 11.5 165.5t38.5 146.5t69 119.5t107 79t148 29.5q209 0 271 -145
q2 -4 4 -9t3 -8t2.5 -7t3 -6t2.5 -4.5t3 -4.5l2 -2q1 -1 2.5 -1.5t3.5 -0.5q9 0 9 12q0 11 -4.5 63.5t-4.5 84.5l-4 436q41 -6 80 -6q38 0 84 6q-4 -290 -4 -555q0 -434 2 -610zM518 115q96 0 160.5 53.5t89.5 153.5q14 55 14 202q0 134 -12 178q-24 90 -90 148.5t-150 58.5
q-138 0 -199 -93.5t-61 -309.5q0 -199 57.5 -295t190.5 -96z" />
    <glyph glyph-name="e" unicode="e" horiz-adv-x="1024" 
d="M913 299q-25 -155 -122.5 -237t-262.5 -82q-203 0 -310 136.5t-107 379.5q0 263 112.5 405.5t311.5 142.5q177 0 274.5 -123.5t97.5 -375.5q0 -9 -1 -29.5t-1 -30.5q-128 9 -330 9h-274q-23 0 -30 -6.5t-7 -28.5v-15q0 -158 72 -243.5t201 -85.5q105 0 155 45t70 143
q62 -8 100 -8q23 0 51 4zM745 655q0 43 -10.5 84t-33.5 81t-68 64.5t-107 24.5q-105 0 -171 -67.5t-85 -188.5q-2 -8 -2 -22q0 -19 7 -23t38 -4q17 0 63 -1t70 -1q135 0 250 8q36 3 42.5 9t6.5 36z" />
    <glyph glyph-name="f" unicode="f" horiz-adv-x="610" 
d="M580 1358q0 -35 -7 -70q-60 21 -96 21q-29 0 -50 -11t-31.5 -26t-16.5 -43t-7.5 -48t-2.5 -55q0 -11 -1 -34.5t-1 -36.5q0 -23 5 -29t27 -6q70 0 176 4q-4 -36 -4 -68q0 -33 4 -69q-106 4 -184 4q-14 0 -19 -5.5t-5 -19.5q0 -221 6 -866q-35 6 -84 6q-43 0 -80 -6
q4 289 4 868q0 13 -4.5 18t-22.5 5q-39 0 -149 -4q4 36 4 69q0 32 -4 68q55 -4 145 -4q19 0 24 5.5t5 23.5q0 8 -2 37.5t-2 48.5q0 89 16.5 145t52.5 98q67 78 187 78q57 0 110 -18q7 -63 7 -80z" />
    <glyph glyph-name="g" unicode="g" horiz-adv-x="1099" 
d="M772 514q0 140 -16 197q-28 92 -89.5 145t-144.5 53q-254 0 -254 -383q0 -223 63 -313t199 -90q83 0 143 51.5t87 140.5q12 48 12 199zM498 -10q-185 5 -286 138t-101 386t100 391.5t278 138.5q105 0 166 -37t99 -124q8 -19 16 -19q10 0 10 13q0 15 -4 75t-4 72
q40 -6 84 -6q42 0 82 6q-12 -352 -12 -526q0 -87 1 -266.5t1 -266.5q0 -194 -106.5 -279t-303.5 -85q-190 0 -270 70t-80 196q40 -6 88 -6q42 0 76 6q0 -129 196 -129q111 0 179.5 60.5t68.5 172.5v62q0 30 3 76.5t3 56.5t-6 10q-9 0 -23 -34q-2 -5 -3 -7
q-32 -74 -101 -109.5t-151 -35.5z" />
    <glyph glyph-name="h" unicode="h" horiz-adv-x="1085" 
d="M324 1014q0 -35 -4.5 -80.5t-4.5 -46.5q0 -23 13 -23q8 0 18 23q80 157 281 157q153 0 229 -93t76 -253v-252q0 -224 4 -446q-27 6 -78 6q-56 0 -86 -6q4 180 4 352q0 66 -1 158.5t-1 126.5q-1 47 -5 82.5t-15.5 73t-31 61.5t-53 39.5t-79.5 15.5q-101 0 -164 -63
q-98 -95 -98 -295q0 -19 1 -70.5t1 -87.5q0 -72 2 -210.5t2 -182.5q-44 6 -86 6q-44 0 -78 -6q4 168 4 483v185q0 418 -6 784q41 -6 76 -6q36 0 82 6z" />
    <glyph glyph-name="i" unicode="i" horiz-adv-x="503" 
d="M334 0q-44 6 -82 6q-45 0 -82 -6q4 129 4 489q0 375 -4 535q40 -6 84 -6q36 0 80 6q-4 -156 -4 -526q0 -369 4 -498zM334 1253q-35 7 -76 7t-88 -7q6 47 6 103t-6 96q40 -6 84 -6q50 0 80 6q-4 -40 -4 -96q0 -57 4 -103z" />
    <glyph glyph-name="j" unicode="j" horiz-adv-x="503" 
d="M170 1024q40 -6 84 -6q36 0 80 6q-2 -66 -2 -225v-201q0 -105 1 -314t1 -300v-17q0 -82 -14 -143.5t-48 -112.5t-98 -77.5t-156 -26.5q-55 0 -116 16q4 46 4 74q0 36 -4 72q61 -15 108 -15q51 0 80 8t49.5 33.5t27.5 69t9 119.5q2 78 2 276q0 140 -3.5 421.5t-4.5 342.5z
M334 1253q-35 7 -76 7t-88 -7q6 47 6 103t-6 96q40 -6 84 -6q50 0 80 6q-4 -40 -4 -96q0 -57 4 -103z" />
    <glyph glyph-name="k" unicode="k" horiz-adv-x="1003" 
d="M979 0q-86 8 -113 8q-46 0 -86 -8q-37 58 -95 139l-131 182l-83 115q-24 33 -39 33q-10 0 -24 -12l-46 -37q-19 -17 -25.5 -34t-6.5 -46v-100q0 -76 4 -240q-50 8 -80 8q-22 0 -84 -8q4 238 4 764q0 510 -4 688q46 -8 84 -8q30 0 80 8q-2 -132 -2.5 -427.5t-1.5 -352.5
q0 -33 -2 -66t-4 -54.5t-2 -25.5q0 -12 6 -12q4 0 11 8.5t16 21.5t14 19q17 24 63 76l156 180l170 205q48 -8 82 -8q14 0 104 8l-315 -352q-15 -17 -72 -70q-14 -14 -14 -22q0 -2 0.5 -4t0.5 -3.5t1.5 -4t2.5 -3.5t3 -4t3.5 -4.5t5 -5.5t5.5 -6q31 -31 80 -99z" />
    <glyph glyph-name="l" unicode="l" horiz-adv-x="503" 
d="M170 1452q43 -6 82 -6q42 0 82 6q-4 -516 -4 -731q0 -494 4 -721q-44 6 -82 6q-42 0 -82 -6q4 360 4 721q0 265 -4 731z" />
    <glyph glyph-name="m" unicode="m" horiz-adv-x="1638" 
d="M569 909q-94 0 -157 -63q-49 -47 -66.5 -115.5t-17.5 -179.5q0 -19 1 -70.5t1 -87.5q0 -72 2 -210.5t2 -182.5q-44 6 -86 6q-44 0 -78 -6q4 168 4 483v60q0 176 -8 315q-5 106 -14 166q41 -6 77 -6q45 0 86 6l1 -22q1 -23 1 -33q0 -22 -1 -50.5t-1 -31.5q0 -23 13 -23
q8 0 18 23q85 157 264 157q58 0 119 -22q100 -38 145 -148q3 -10 11 -10t18 23q11 22 22 39t34.5 40.5t51 39t72 27t97.5 11.5q153 0 229 -93t76 -253v-241q0 -235 4 -457q-27 6 -78 6q-56 0 -86 -6q4 180 4 352q0 66 -1 158.5t-1 126.5q-1 47 -4.5 82.5t-15 73t-30.5 61.5
t-52 39.5t-78 15.5q-95 0 -158 -63q-49 -47 -66.5 -115.5t-17.5 -179.5q0 -19 1 -70.5t1 -87.5q0 -72 2 -210.5t2 -182.5q-43 6 -86 6t-77 -6q4 180 4 352q0 66 -1 158.5t-1 126.5q-1 47 -4.5 82.5t-15 73t-30.5 61.5t-52.5 39.5t-78.5 15.5z" />
    <glyph glyph-name="n" unicode="n" horiz-adv-x="1085" 
d="M315 1024l1 -22q1 -23 1 -33q0 -22 -1 -50.5t-1 -31.5q0 -23 13 -23q8 0 18 23q80 157 281 157q153 0 229 -93t76 -253v-241q0 -235 4 -457q-27 6 -78 6q-56 0 -86 -6q4 180 4 352q0 66 -1 158.5t-1 126.5q-1 47 -5 82.5t-15.5 73t-31 61.5t-53 39.5t-79.5 15.5
q-101 0 -164 -63q-52 -50 -75 -116t-23 -169q0 -19 1 -75.5t1 -92.5q0 -72 2 -210.5t2 -182.5q-44 6 -86 6q-44 0 -78 -6q4 168 4 483v60q0 176 -8 315q-5 106 -14 166q41 -6 77 -6q45 0 86 6z" />
    <glyph glyph-name="o" unicode="o" horiz-adv-x="1056" 
d="M946 512q0 -263 -109 -397.5t-309 -134.5t-308.5 134.5t-108.5 397.5t108.5 397.5t308.5 134.5t309 -134.5t109 -397.5zM786 512q0 203 -62 300t-196 97t-196 -97t-62 -300t62 -300t196 -97t196 97t62 300z" />
    <glyph glyph-name="p" unicode="p" horiz-adv-x="1112" 
d="M1001 528q0 -112 -19 -206t-60.5 -173t-116.5 -124t-178 -45q-210 0 -271 143q-2 4 -4 9t-3 8t-2.5 7t-3 6t-2.5 4.5t-3 4.5l-2 2q-1 1 -2.5 1.5t-3.5 0.5q-8 0 -8 -12q0 -11 4 -63.5t4 -84.5l4 -389q-41 6 -74 6q-44 0 -90 -6q4 290 4 518q0 414 -2 590q0 165 -16 299
q37 -6 82 -6q40 0 84 6l1 -22q1 -23 1 -33q0 -22 -1 -50.5t-1 -31.5q0 -23 12 -23q8 0 18 23q41 84 105 120.5t170 36.5q374 0 374 -516zM842 526q0 199 -56.5 291t-189.5 92q-98 0 -162.5 -53.5t-89.5 -153.5q-14 -55 -14 -204q0 -136 12 -179q24 -89 90.5 -146.5
t151.5 -57.5q138 0 198 96.5t60 314.5z" />
    <glyph glyph-name="q" unicode="q" horiz-adv-x="1095" 
d="M766 883q8 -19 16 -19q11 0 11 13q0 15 -4.5 79t-4.5 76q40 -6 84 -6q42 0 82 6q-6 -188 -10 -471q-2 -176 -2 -426q0 -228 4 -518q-40 6 -82 6t-82 -6l4 389q0 32 3 84.5t3 63.5q0 10 -6 10q-2 0 -4 -0.5t-3.5 -2.5t-2.5 -3.5t-3 -5t-3 -5.5t-3 -7t-3 -7
q-65 -153 -275 -153q-103 0 -178 45t-116.5 124t-60.5 173t-19 206q0 244 95 380t288 136q106 0 170 -37.5t102 -123.5zM270 526q0 -217 61 -314t199 -97q85 0 150.5 57.5t89.5 146.5q12 43 12 183q0 139 -14 194q-53 213 -242 213q-135 0 -195.5 -93.5t-60.5 -289.5z" />
    <glyph glyph-name="r" unicode="r" horiz-adv-x="669" 
d="M334 846q2 3 16 29t33.5 56t38.5 50q60 63 170 63q11 0 22 -1l11 -1q4 -36 4 -84q0 -52 -4 -92q-27 6 -66 6q-70 0 -125.5 -43t-83.5 -133q-24 -82 -24 -198q0 -91 3.5 -260.5t4.5 -237.5q-40 6 -86 6q-38 0 -78 -6q2 121 2 498q0 214 -4 333q-7 131 -18 193q44 -6 77 -6
q37 0 74 6q10 -45 10 -109q0 -16 -1 -35t-1 -22q0 -22 13 -22q5 0 12 10z" />
    <glyph glyph-name="s" unicode="s" horiz-adv-x="927" 
d="M831 285q0 -142 -99 -223.5t-273 -81.5q-172 0 -272.5 79.5t-100.5 237.5v14q34 -6 80 -6q41 0 78 6q3 -103 53 -150.5t162 -47.5q101 0 162 40t61 119q0 20 -5 37.5t-11 30.5t-20 26t-24 21t-32 18l-33 15q-12 5 -39.5 13l-38.5 11l-43 11l-30 8q-44 12 -72.5 21.5
t-67 25.5t-62.5 35.5t-46.5 47t-33.5 65.5t-11 85q0 129 97 215t249 86q134 0 227.5 -61t114.5 -186q4 -36 4 -70q-36 4 -68 4q-43 0 -80 -6q0 19 -4 47q-27 141 -194 141q-102 0 -150.5 -47.5t-48.5 -107.5q0 -46 14 -71.5t60 -49.5t141 -49l31 -8q137 -37 193 -67
q132 -73 132 -228z" />
    <glyph glyph-name="t" unicode="t" horiz-adv-x="641" 
d="M604 66q0 -20 -4 -60q-94 -26 -162 -26q-135 0 -197.5 61t-62.5 209v18q0 353 6 535q0 17 1 39t1 26q0 23 -20 23q-11 0 -49.5 -2t-65.5 -2q2 18 2 39t-2 37q81 35 117.5 95t60.5 191q30 6 64 6q31 0 45 -2q-4 -148 -4 -213q0 -12 5 -16t15 -4h11q73 0 221 4
q-4 -40 -4 -68q0 -29 4 -69q-140 4 -217 4q-23 0 -29 -7.5t-6 -39.5q-2 -76 -2 -264q0 -217 2 -291q1 -42 3 -66.5t9 -48t20.5 -35t36 -18t56.5 -6.5q78 0 141 20q4 -36 4 -69z" />
    <glyph glyph-name="u" unicode="u" horiz-adv-x="1085" 
d="M770 0q0 1 -1 18.5t-1 26.5q0 22 1 54.5t1 35.5q0 25 -12 25q-9 0 -19 -23q-80 -157 -280 -157q-153 0 -229 93t-76 253v249q0 227 -4 449q27 -6 77 -6q56 0 86 6q-4 -180 -4 -344q0 -66 1 -162.5t1 -130.5q1 -59 8 -102t25.5 -84.5t56.5 -63.5t95 -22q100 0 163 63
q99 96 99 295q0 19 -1 74.5t-1 91.5q0 72 -2 206.5t-2 178.5q43 -6 86 -6q42 0 77 6q-4 -168 -4 -475v-60q0 -159 9 -315q6 -119 14 -174q-40 6 -78 6q-46 0 -86 -6z" />
    <glyph glyph-name="v" unicode="v" horiz-adv-x="944" 
d="M913 1024l-192 -571q-127 -374 -152 -453q-49 6 -96 6q-57 0 -92 -6l-163 477l-187 547q64 -6 98 -6q36 0 78 6l233 -748q5 -16 16 -65t11 -51q4 -19 12 -19q9 0 13 19q9 61 26 114q46 142 225 750q27 -6 70 -6q59 0 100 6z" />
    <glyph glyph-name="w" unicode="w" horiz-adv-x="1458" 
d="M799 557q-12 47 -22 92t-16 81l-10 61q-4 25 -7 48t-3 25q0 1 -1 4.5t-1 5t-1 4t-2 2.5l-3 2q-2 1 -4 1q-8 0 -12 -19q0 -2 -5 -46t-17 -115t-31 -144q-35 -134 -82 -293t-72 -266q-34 6 -104 6q-32 0 -101 -6q-29 127 -121.5 487t-134.5 537q62 -6 90 -6q41 0 76 6
q65 -308 154 -682q5 -15 20 -94.5t17 -87.5q4 -19 12 -19q2 0 4 1l3 2q1 0 2 2.5t1 4t1 5t1 4.5q3 22 18 93t21 89q91 336 143 573q17 70 25 109q40 -6 92 -6q53 0 96 6l25 -109q52 -230 143 -573q6 -18 21 -89t18 -93q0 -1 1 -4.5t1 -5t1 -4t2 -2.5l3 -2q2 -1 4 -1
q9 0 13 19q2 7 16 81.5t21 100.5l76 336l79 346q21 -6 64 -6t96 6q-36 -151 -133.5 -521.5t-124.5 -502.5q-30 6 -100 6q-75 0 -105 -6l-34 147l-28 109l-39 136z" />
    <glyph glyph-name="x" unicode="x" horiz-adv-x="876" 
d="M848 0q-52 6 -96 6q-46 0 -99 -6l-93 178l-73 139q-10 15 -38 84q-3 6 -5 13t-3 11t-2.5 7t-3.5 4.5t-5 1.5q-4 0 -6.5 -5t-5.5 -15.5t-6 -16.5q-28 -65 -35 -77l-82 -154l-90 -170q-27 6 -76 6q-47 0 -98 -6l286 494q19 33 19 47t-10 34q-34 62 -126 213l-141 236
q52 -6 93 -6q48 0 92 6q32 -57 141 -270q20 -36 39 -86q12 -31 18 -31q5 0 9 5t12 26q30 69 45 96q26 46 67 131t66 129q30 -6 68 -6q43 0 104 6l-128 -215l-130 -221q-18 -34 -18 -45q0 -19 16 -45l139 -233z" />
    <glyph glyph-name="y" unicode="y" horiz-adv-x="946" 
d="M915 1024l-337 -1024l-30 -87q-11 -32 -28.5 -77t-31.5 -70.5t-34 -57.5t-40.5 -49.5t-47 -34t-57.5 -23.5t-67 -7q-62 0 -133 15q6 30 6 59q0 17 -2.5 48t-3.5 40q72 -20 118 -20q76 0 127.5 57t51.5 141q0 44 -12.5 89.5t-36 105.5t-31.5 84q-39 120 -140 404l-141 407
q64 -6 100 -6q55 0 76 6l71 -234l84 -276l77 -238q5 -16 15 -63t11 -53q4 -19 13 -19q2 0 4 1l3 2q1 0 2 2.5t1 4t1 5t1 4.5q9 61 26 114q49 153 120 411.5t95 338.5q27 -6 76 -6q39 0 94 6z" />
    <glyph glyph-name="z" unicode="z" horiz-adv-x="876" 
d="M772 901l-446 -674q-9 -17 -24.5 -36.5t-24.5 -32t-9 -17.5q0 -8 13 -8q6 0 43 3.5t75 4.5l387 6q-4 -46 -4 -81q0 -30 4 -66q-318 6 -467 6q-167 0 -229 -6q4 36 4 63q0 30 -4 66l338 508q118 180 121 184q4 7 10 15l10 13l7 11q3 5 4.5 8.5t1.5 5.5q0 11 -43 11h-131
q-79 0 -291 -8q6 29 6 79q0 30 -6 68q192 -8 422 -8q173 0 233 8q2 -18 2 -61q0 -42 -2 -62z" />
    <glyph glyph-name="braceleft" unicode="{" horiz-adv-x="667" 
d="M555 -326h-37q-130 0 -193 60t-63 211q0 26 8.5 168.5t8.5 169.5q0 40 -2.5 70.5t-11.5 64.5t-25 57t-44.5 41t-68.5 23q4 16 4 41q0 27 -4 43q48 6 80 28.5t47 60.5t20 74.5t5 85.5q0 24 -9.5 155t-9.5 155q0 153 63 213.5t232 60.5q-4 -14 -4 -37t4 -37
q-40 -1 -67.5 -10.5t-43.5 -24t-24.5 -40t-11 -51.5t-2.5 -66q0 -23 8 -155.5t8 -155.5q0 -186 -90 -252q-13 -10 -38 -16t-41.5 -12t-16.5 -19q0 -14 16.5 -21t42.5 -13.5t39 -15.5q52 -36 70 -98t18 -164q0 -24 -8 -164t-8 -165q0 -47 4.5 -76.5t19 -57t45.5 -41t80 -14.5
q-6 -21 -6 -41q0 -23 6 -35z" />
    <glyph glyph-name="bar" unicode="|" horiz-adv-x="481" 
d="M303 -264q-16 4 -59 4q-46 0 -66 -4q6 334 6 848q0 506 -6 899q40 -4 66 -4q31 0 59 4q-4 -524 -4 -899q0 -402 4 -848z" />
    <glyph glyph-name="braceright" unicode="}" horiz-adv-x="667" 
d="M543 508q-48 -6 -80 -29t-47 -61t-20 -74.5t-5 -85.5q0 -24 9.5 -154.5t9.5 -154.5q0 -153 -64 -214t-233 -61q6 21 6 37t-6 37q49 1 80 14t46 40.5t20 58t5 80.5q0 24 -8 155.5t-8 155.5q0 186 90 252q13 10 38 16t41.5 12t16.5 19q0 14 -16.5 21t-42 13t-37.5 15
q-53 36 -71.5 98t-18.5 164q0 24 8 165t8 165q0 47 -5 76.5t-20 56.5t-46 40.5t-80 14.5q8 28 8 39q0 21 -8 37h37q131 0 194.5 -59.5t63.5 -210.5q0 -26 -9.5 -169t-9.5 -169q0 -40 2.5 -70.5t12 -64.5t26 -57.5t45 -41t68.5 -22.5q-6 -24 -6 -43q0 -17 6 -41z" />
    <glyph glyph-name="asciitilde" unicode="~" horiz-adv-x="1167" 
d="M1112 684q-19 -138 -95 -215.5t-196 -77.5q-62 0 -135.5 29.5t-129.5 65t-121.5 65t-112.5 29.5q-62 0 -94.5 -37.5t-63.5 -132.5q-12 4 -53 4q-20 0 -56 -4q21 137 93.5 216t189.5 79q60 0 133 -31t130 -67.5t123.5 -67.5t115.5 -31q65 0 98.5 39.5t62.5 136.5
q21 -6 56 -6q25 0 55 6z" />
    <glyph glyph-name="uni00A0" unicode="&#xa0;" horiz-adv-x="526" 
 />
    <glyph glyph-name="cent" unicode="&#xa2;" horiz-adv-x="966" 
d="M893 467q0 -31 -9.5 -78.5t-23.5 -81.5q-36 -87 -102 -141q-50 -43 -115 -57q-33 -7 -41 -17.5t-8 -46.5q0 -1 4 -145q-21 8 -66 8q-35 0 -75 -8q0 12 2 63t2 82q0 34 -6.5 43.5t-30.5 15.5l-43 13q-268 78 -268 461q0 185 63.5 313.5t192.5 177.5q29 11 55 16
q24 5 31.5 13t7.5 32q0 50 -4 136q30 -9 71 -9q43 0 70 9q-4 -84 -4 -140q0 -23 6.5 -32t28.5 -13l51 -12q85 -29 136 -98t63 -170q4 -32 4 -53q-40 4 -78 4q-29 0 -80 -7q0 34 -2 46q-16 176 -188 176q-265 0 -265 -379q0 -176 58 -270.5t190 -94.5q156 0 199 125
q14 42 18 119q43 -6 86 -6q32 0 70 6z" />
    <glyph glyph-name="sterling" unicode="&#xa3;" horiz-adv-x="1105" 
d="M1022 324q-3 -80 -25.5 -144.5t-52.5 -99.5q-82 -100 -285 -100q-53 0 -108 6.5t-86.5 13.5t-69.5 16.5t-41 10.5q-62 16 -88 16q-28 0 -39 -12t-14 -37q-39 10 -82 10q-10 0 -31 -2t-26 -2q-2 10 -2 29q0 47 19 80.5t44 51t64 48t65 63.5q53 65 53 144q0 15 -1.5 30.5
t-5.5 35.5l-6 34q-2 13 -8 41l-9 43q-6 28 -13 34.5t-32 6.5q-52 0 -166 -4q6 30 6 61q0 44 -6 74q24 -1 71 -4.5t78 -3.5q17 0 17 12q0 3 -3 10l-3 11q-41 150 -41 250q0 178 100 286.5t295 108.5q175 0 271.5 -99.5t96.5 -263.5q-36 8 -77 8q-45 0 -78 -8
q-5 106 -57.5 166t-155.5 60q-244 0 -244 -258q0 -90 37 -234q8 -32 14 -40.5t23 -8.5q54 0 165 3.5t138 4.5q-6 -27 -6 -72q0 -31 6 -61q-264 6 -283 6q-10 0 -10 -8q0 -3 1 -6t2 -7l3 -14l6 -22q25 -88 25 -164q0 -78 -24 -127.5t-72 -99.5q-5 -5 -13 -10.5t-12 -10
t-4 -10.5q0 -12 29 -12h18q59 0 156 -18.5t139 -18.5q74 0 118.5 29t61.5 110q4 21 8 68q38 -9 76 -9q40 0 74 9z" />
    <glyph glyph-name="yen" unicode="&#xa5;" horiz-adv-x="1105" 
d="M1044 1419l-278 -508q-11 -21 -23 -41l-19 -31l-12 -20q-5 -10 -7.5 -16t-2.5 -10q0 -11 17 -11q4 0 32 2.5t62 3.5l174 3q-6 -48 -6 -54q0 -27 6 -51q-282 6 -295 6q-28 0 -36 -6t-19 -29q-12 -25 -12 -94q0 -20 5.5 -27.5t20.5 -7.5q132 0 336 4q-6 -24 -6 -45
q0 -27 6 -57q-204 4 -315 4q-30 0 -38.5 -6.5t-8.5 -28.5q0 -63 2.5 -197t3.5 -202q-41 6 -80 6q-37 0 -80 -6q8 290 8 403q0 20 -7 25.5t-34 5.5q-29 0 -303 -4q4 24 4 39q0 27 -4 63q39 0 151 -1t163 -1q17 0 22.5 6.5t5.5 28.5q0 60 -12 90q-9 24 -17.5 30.5t-29.5 6.5
q-25 0 -283 -6q4 18 4 49q0 36 -4 56l164 -5q29 0 57 -2l27 -2q14 0 14 11q0 7 -5.5 17.5t-22 39.5t-33.5 63q-101 200 -277 506q23 -4 80 -4q63 0 92 4q72 -164 283 -567q6 -12 14.5 -34t14.5 -32t14 -10q3 0 7 3.5t8 12.5l8 16q4 7 10 21.5t10 22.5q201 388 283 567
q50 -4 86 -4q52 0 75 4z" />
    <glyph glyph-name="dieresis" unicode="&#xa8;" 
d="M684 1225q-34 6 -86 6t-90 -6q4 40 4 88q0 40 -4 98q38 -6 92 -6q50 0 84 6q-4 -33 -4 -96t4 -90zM313 1227q-25 4 -92 4q-68 0 -88 -4q2 23 2 90q0 71 -2 96q25 -2 92 -2q65 0 88 2q-4 -46 -4 -86q0 -54 4 -100z" />
    <glyph glyph-name="copyright" unicode="&#xa9;" horiz-adv-x="1605" 
d="M1536 711q0 -112 -29 -218.5t-89.5 -201t-146 -165t-207 -112t-263.5 -41.5t-262.5 41.5t-205.5 112t-145.5 165t-89 201t-28.5 218.5t28.5 218.5t89 201t145.5 165.5t205.5 112.5t262.5 41.5t263.5 -41.5t207 -112.5t146 -165.5t89.5 -201t29 -218.5zM1413 711
q0 119 -39 229t-113 199t-193.5 142.5t-266.5 53.5t-266 -53.5t-192 -142.5t-111.5 -199t-38.5 -229q0 -95 23.5 -184.5t73.5 -169t120.5 -139.5t171 -95t219.5 -35t220 35t172 95t121.5 139.5t74.5 169t24 184.5zM555 711q0 -159 68 -242.5t178 -83.5q88 0 147.5 50
t69.5 143q29 -7 67 -7q22 0 66 7q-13 -143 -109.5 -227.5t-240.5 -84.5q-168 0 -275.5 120t-107.5 325t107.5 326.5t275.5 121.5q144 0 240.5 -85.5t109.5 -229.5q-37 6 -66 6q-42 0 -67 -6q-10 92 -69.5 142t-147.5 50q-110 0 -178 -81.5t-68 -243.5z" />
    <glyph glyph-name="guillemotleft" unicode="&#xab;" horiz-adv-x="907" 
d="M258 545q0 -13 21 -43l26 -37q78 -110 162 -264q-36 4 -66 4q-60 0 -84 -6l-41 74l-49 79l-42 64l-47 70q-32 48 -40 59q8 11 40 59l47 70l42 64l49 79l41 74q24 -6 84 -6q30 0 66 4q-84 -154 -162 -264l-26 -37q-21 -30 -21 -43zM596 545q0 -14 20 -43l27 -37
q78 -110 162 -264q-36 4 -66 4q-60 0 -84 -6l-41 74q-22 37 -49 78l-42 65l-47 70q-32 48 -40 59q8 11 40 58l47 71l42 64l49 79l41 74q24 -6 84 -6q30 0 66 4q-84 -154 -162 -264l-27 -37q-20 -29 -20 -43z" />
    <glyph glyph-name="uni00AD" unicode="&#xad;" horiz-adv-x="557" 
d="M471 473q-61 4 -192 4q-144 0 -193 -4q8 27 8 74q0 42 -8 69q106 -4 193 -4q141 0 192 4q-8 -27 -8 -69q0 -28 8 -74z" />
    <glyph glyph-name="registered" unicode="&#xae;" horiz-adv-x="1605" 
d="M1536 711q0 -112 -29 -218.5t-89.5 -201t-146 -165t-207 -112t-263.5 -41.5t-262.5 41.5t-205.5 112t-145.5 165t-89 201t-28.5 218.5t29 218.5t89.5 201t145.5 165.5t206 112.5t263 41.5t263.5 -41.5t206.5 -112.5t145.5 -165.5t89 -201t28.5 -218.5zM1413 711
q0 119 -39 229t-113 199t-193.5 142.5t-266.5 53.5t-266 -53.5t-192 -142.5t-111.5 -199t-38.5 -229q0 -95 23.5 -184.5t73.5 -169t120.5 -139.5t171 -95t219.5 -35t220 35t172 95t121.5 139.5t74.5 169t24 184.5zM1118 270q-55 9 -69 9q-16 0 -70 -7q-51 256 -86 322
q-18 33 -45.5 43t-69.5 10h-78q-34 0 -42.5 -7t-8.5 -28q0 -262 4 -342q-47 9 -61 9q-32 0 -70 -7q2 125 2 426q0 322 -2 478q51 -5 137 -5q27 0 80 1.5t80 1.5q73 0 128 -22t86 -59.5t46 -80.5t15 -90q0 -84 -43 -142q-40 -54 -99 -61q-43 -3 -43 -17q0 -8 6.5 -11.5
t30.5 -10.5q60 -17 86 -98q14 -38 86 -312zM965 922q0 135 -177 135h-112q-23 0 -23 -25q-2 -70 -2 -256q3 -14 21 -14h76q40 0 65.5 2t57.5 11t50 25t31 47t13 75z" />
    <glyph glyph-name="acute" unicode="&#xb4;" 
d="M602 1452l-72 -80l-98 -113q-41 -48 -67 -85q-28 4 -58 4q-39 0 -86 -7q3 8 34 59l75 118q43 68 63 104q40 -4 74 -4q13 0 135 4z" />
    <glyph glyph-name="cedilla" unicode="&#xb8;" 
d="M602 -209q0 -72 -68 -119t-172 -47q-76 0 -147 31q16 36 21 76q69 -19 114 -19q54 0 85.5 19t31.5 51q0 15 -5.5 26.5t-19.5 18.5l-23 11q-10 4 -32 6.5t-32 3t-35.5 1t-30.5 0.5q45 72 76 168h94l-29 -71q-14 -19 -14 -25q0 -2 2 -3.5t4 -2.5h2l20 4q73 -4 115.5 -38.5
t42.5 -90.5z" />
    <glyph glyph-name="guillemotright" unicode="&#xbb;" horiz-adv-x="907" 
d="M315 545q0 14 -20 43l-27 37q-78 110 -162 264q36 -4 66 -4q60 0 84 6l41 -74q22 -37 49 -78l42 -65l47 -70q32 -48 40 -59q-8 -11 -40 -58l-47 -71l-42 -64l-49 -79l-41 -74q-24 6 -84 6q-30 0 -66 -4q84 154 162 264l27 37q20 29 20 43zM651 545q0 14 -20 43l-27 37
q-78 110 -162 264q36 -4 66 -4q60 0 84 6l42 -74q21 -37 48 -78l42 -65l47 -70q32 -48 40 -59q-8 -11 -40 -58l-47 -71l-42 -64l-49 -79l-41 -74q-24 6 -84 6q-30 0 -66 -4q84 154 162 264l27 37q20 29 20 43z" />
    <glyph glyph-name="circumflex" unicode="&#x2c6;" 
d="M410 1452q21 0 75 4q21 -37 71 -103l89 -117q39 -51 41 -58q-54 6 -82 6q-33 0 -63 -6l-76 100q-9 13 -18 28l-14 23q-5 7 -11 12t-12 5q-8 0 -14 -6t-19 -27t-23 -35l-75 -100q-30 6 -64 6q-28 0 -82 -6q2 7 41 58l90 117q49 66 70 103q50 -4 76 -4z" />
    <glyph glyph-name="ring" unicode="&#x2da;" 
d="M322 1307q0 -43 25.5 -68t60.5 -25t60.5 25t25.5 68t-25.5 67.5t-60.5 24.5t-60.5 -24.5t-25.5 -67.5zM229 1307q0 84 53 130t126 46t125.5 -46t52.5 -130t-52.5 -130.5t-125.5 -46.5t-126 46.5t-53 130.5z" />
    <glyph glyph-name="tilde" unicode="&#x2dc;" 
d="M729 1417l-2 -18q-8 -82 -57 -143.5t-131 -61.5q-44 0 -91.5 24t-89 48t-71.5 24q-74 0 -97 -104q-27 6 -47 6q-23 0 -53 -6l2 18q10 90 66.5 150.5t124.5 60.5q45 0 91 -24l90 -48q44 -24 81 -24q36 0 58 22.5t34 75.5q18 -6 47 -6q27 0 45 6z" />
    <glyph glyph-name="uni2000" unicode="&#x2000;" horiz-adv-x="781" 
 />
    <glyph glyph-name="uni2001" unicode="&#x2001;" horiz-adv-x="1563" 
 />
    <glyph glyph-name="uni2002" unicode="&#x2002;" horiz-adv-x="781" 
 />
    <glyph glyph-name="uni2003" unicode="&#x2003;" horiz-adv-x="1563" 
 />
    <glyph glyph-name="uni2004" unicode="&#x2004;" horiz-adv-x="521" 
 />
    <glyph glyph-name="uni2005" unicode="&#x2005;" horiz-adv-x="390" 
 />
    <glyph glyph-name="uni2006" unicode="&#x2006;" horiz-adv-x="260" 
 />
    <glyph glyph-name="uni2007" unicode="&#x2007;" horiz-adv-x="260" 
 />
    <glyph glyph-name="uni2008" unicode="&#x2008;" horiz-adv-x="195" 
 />
    <glyph glyph-name="uni2009" unicode="&#x2009;" horiz-adv-x="312" 
 />
    <glyph glyph-name="uni200A" unicode="&#x200a;" horiz-adv-x="86" 
 />
    <glyph glyph-name="uni2010" unicode="&#x2010;" horiz-adv-x="557" 
d="M471 473q-61 4 -192 4q-144 0 -193 -4q8 27 8 74q0 42 -8 69q106 -4 193 -4q141 0 192 4q-8 -27 -8 -69q0 -28 8 -74z" />
    <glyph glyph-name="uni2011" unicode="&#x2011;" horiz-adv-x="557" 
d="M471 473q-61 4 -192 4q-144 0 -193 -4q8 27 8 74q0 42 -8 69q106 -4 193 -4q141 0 192 4q-8 -27 -8 -69q0 -28 8 -74z" />
    <glyph glyph-name="figuredash" unicode="&#x2012;" horiz-adv-x="557" 
d="M471 473q-61 4 -192 4q-144 0 -193 -4q8 27 8 74q0 42 -8 69q106 -4 193 -4q141 0 192 4q-8 -27 -8 -69q0 -28 8 -74z" />
    <glyph glyph-name="endash" unicode="&#x2013;" horiz-adv-x="1167" 
d="M1034 473q-258 4 -450 4q-115 0 -451 -4q4 36 4 70q0 27 -4 73q344 -4 451 -4q188 0 450 4q-4 -46 -4 -75q0 -32 4 -68z" />
    <glyph glyph-name="emdash" unicode="&#x2014;" horiz-adv-x="1902" 
d="M1839 473q-324 4 -952 4q-573 0 -821 -4q4 40 4 72q0 31 -4 71q442 -4 845 -4q370 0 928 4q-4 -40 -4 -71q0 -36 4 -72z" />
    <glyph glyph-name="quoteleft" unicode="&#x2018;" horiz-adv-x="456" 
d="M123 942q28 262 100 508q12 -2 39 -2q26 0 76 4q-47 -303 -47 -510q-60 6 -84 6q-15 0 -84 -6z" />
    <glyph glyph-name="quoteright" unicode="&#x2019;" horiz-adv-x="454" 
d="M340 1452q-28 -262 -100 -508q-12 2 -39 2q-26 0 -76 -4q47 303 47 510q30 -6 84 -6q15 0 84 6z" />
    <glyph glyph-name="quotesinglbase" unicode="&#x201a;" horiz-adv-x="483" 
d="M336 195q-28 -262 -100 -508q-12 2 -39 2q-22 0 -76 -4q47 243 47 510q73 -5 88 -5q12 0 80 5z" />
    <glyph glyph-name="quotedblleft" unicode="&#x201c;" horiz-adv-x="806" 
d="M471 942q28 262 100 508q12 -2 39 -2q26 0 76 4q-47 -303 -47 -510q-60 6 -84 6q-15 0 -84 -6zM373 1452q-84 -306 -84 -510q-60 6 -84 6q-15 0 -84 -6q26 245 137 508q12 -2 39 -2q26 0 76 4z" />
    <glyph glyph-name="quotedblright" unicode="&#x201d;" horiz-adv-x="806" 
d="M336 1452q-28 -262 -100 -508q-12 2 -39 2q-26 0 -76 -4q47 303 47 510q60 -6 84 -6q15 0 84 6zM434 942q84 306 84 510q60 -6 84 -6q15 0 84 6q-26 -245 -137 -508q-12 2 -39 2q-26 0 -76 -4z" />
    <glyph glyph-name="quotedblbase" unicode="&#x201e;" horiz-adv-x="806" 
d="M686 195q-26 -245 -137 -508q-12 2 -39 2q-22 0 -76 -4q84 306 84 510q72 -5 86 -5t82 5zM336 195q-28 -262 -100 -508q-12 2 -39 2q-22 0 -76 -4q47 303 47 510q73 -5 86 -5q14 0 82 5z" />
    <glyph glyph-name="ellipsis" unicode="&#x2026;" horiz-adv-x="2021" 
d="M471 0q-41 8 -86 8t-92 -8q4 58 4 96q0 45 -4 99q67 -5 86 -5q9 0 92 5q-4 -58 -4 -105q0 -40 4 -90zM1098 0q-41 8 -86 8t-92 -8q4 58 4 96q0 45 -4 99q67 -5 86 -5q10 0 92 5q-4 -58 -4 -105q0 -40 4 -90zM1729 0q-41 8 -87 8q-45 0 -92 -8q4 58 4 96q0 45 -4 99
q68 -5 86 -5q10 0 93 5q-5 -73 -5 -105q0 -28 5 -90z" />
    <glyph glyph-name="uni202F" unicode="&#x202f;" horiz-adv-x="312" 
 />
    <glyph glyph-name="guilsinglleft" unicode="&#x2039;" horiz-adv-x="548" 
d="M250 545q0 -14 20 -43l27 -37q78 -110 162 -264q-36 4 -66 4q-60 0 -84 -6l-41 74l-49 79l-42 64l-47 70q-32 48 -40 59q8 11 40 59l47 70l42 64l49 79l41 74q24 -6 84 -6q30 0 66 4q-84 -154 -162 -264l-27 -37q-20 -29 -20 -43z" />
    <glyph glyph-name="guilsinglright" unicode="&#x203a;" horiz-adv-x="548" 
d="M299 545q0 14 -20 43l-27 37q-78 110 -162 264q36 -4 66 -4q60 0 84 6l41 -74q22 -37 49 -78l42 -65l47 -70q32 -48 40 -59q-8 -11 -40 -58l-47 -71l-42 -64l-49 -79l-41 -74q-24 6 -84 6q-30 0 -66 -4q84 154 162 264l27 37q20 29 20 43z" />
    <glyph glyph-name="uni205F" unicode="&#x205f;" horiz-adv-x="390" 
 />
    <glyph glyph-name="Euro" unicode="&#x20ac;" horiz-adv-x="1105" 
d="M37 473q8 17 31.5 56t35.5 63l46 -2q9 0 11.5 3t2.5 15q0 6 -1 31.5t-1 48.5q0 21 1 48.5t1 39.5q0 10 -4.5 12.5t-14.5 2.5q-9 0 -51.5 -2.5t-56.5 -2.5q8 17 31.5 56t35.5 63q25 -2 50 -2q4 0 7.5 0.5t5.5 1t3.5 3t2.5 4t1.5 6t1 7.5t1 10.5t1.5 12.5q12 110 43 198
t83 155.5t133 104t186 36.5q121 0 227.5 -54.5t163.5 -152.5q-41 -51 -74 -125q-113 193 -319 193q-243 0 -287 -355q-1 -8 -3.5 -19t-2.5 -14q0 -12 26 -12h103q41 0 103.5 1t146.5 2.5t127 2.5l-18 -29l-20 -35q-8 -13 -17 -30.5t-13 -30.5q-79 7 -326 7h-82q-27 0 -33 -4
t-6 -27v-137q0 -20 3.5 -25.5t21.5 -5.5h98q12 0 224 4q-5 -9 -33 -56t-35 -69q-67 6 -195 6h-32q-25 0 -32 -1t-7 -7q0 -3 2.5 -12.5t3.5 -16.5q27 -177 91.5 -253t193.5 -76q120 0 178.5 63.5t58.5 206.5q37 -6 84 -6q46 0 76 6q0 -195 -111.5 -300.5t-285.5 -105.5
q-87 0 -155 23t-115 62.5t-82 100t-55.5 127.5t-35.5 154q-1 4 -1.5 10t-1 8.5t-1 6t-1.5 5t-2 3.5t-3 2.5t-4.5 1t-5.5 0.5q-36 0 -123 -6z" />
    <glyph glyph-name="trademark" unicode="&#x2122;" horiz-adv-x="1179" 
d="M461 1327q-58 6 -131 6q-9 0 -12 -3t-3 -13v-207q0 -55 2 -154.5t2 -136.5q-36 4 -51 4q-19 0 -47 -4q0 48 1 143.5t1 143.5v211q0 16 -12 16q-84 0 -129 -6q1 16 3.5 29.5t2.5 17.5q0 5 -0.5 11t-1.5 16l-2 20q72 -2 199 -2q117 0 176 2q-2 -12 -2 -37q0 -17 4 -57z
M989 1286l-66 -228l-69 -239q-28 4 -45 4q-23 0 -47 -4q-65 253 -115 416q-5 15 -9 31.5t-6 25.5t-4 17t-4.5 11t-5.5 3q-8 0 -8 -10q0 -2 1 -12t2 -30t1 -46v-15q0 -153 4 -391q-28 4 -47 4q-13 0 -45 -4q4 180 4 279q0 51 -2 159t-2 164q33 -4 82 -4t76 4l111 -395
q3 -11 5.5 -30.5t5 -29.5t7.5 -10q4 0 6.5 9.5t5 28.5t6.5 32q50 160 111 395q58 -4 80 -4q16 0 78 4q-2 -88 -2 -284q0 -209 2 -318q-18 4 -51 4q-20 0 -48 -4q7 215 7 381v12q0 27 1 47.5t2 31t1 12.5q0 10 -8 10t-15 -27z" />
    <glyph glyph-name="uni25FC" unicode="&#x25fc;" horiz-adv-x="1024" 
d="M0 1024h1024v-1024h-1024v1024z" />
    <glyph glyph-name="glyph1" horiz-adv-x="0" 
 />
    <glyph glyph-name="glyph2" horiz-adv-x="682" 
 />
    </font>
</defs>
</svg>
